<svg cache-id="34fa78ff409c43cd8e8702a9abc9e0c7" id="e69RQJkNBlK1" xmlns="http://www.w3.org/2000/svg" xmlns:xlink="http://www.w3.org/1999/xlink" viewBox="0 0 1920 1080" shape-rendering="geometricPrecision" text-rendering="geometricPrecision"><rect width="192" height="108" rx="0" ry="0" transform="matrix(2.094424 0 0 9.624737-.000016-.000012)" stroke-width="0"/><rect width="191.938213" height="106.810641" rx="0" ry="0" transform="matrix(2.094424 0 0 9.352439 1517.870592-.000012)" stroke-width="0"/><rect width="192" height="108" rx="0" ry="0" transform="matrix(1.824112 0 0 10 402.129392 0.000031)" stroke-width="0"/><rect width="192" height="108" rx="0" ry="0" transform="matrix(1.824112 0 0 9.624736 1167.641088 0.000032)" stroke-width="0"/><rect width="192" height="103.788821" rx="0" ry="0" transform="matrix(2.162928 0 0 9.624736 752.358896-.000012)" stroke-width="0"/><rect width="192" height="108" rx="0" ry="0" transform="matrix(-2.162928 0 0 0.375264 1167.641081 1039.471488)" stroke-width="0"/></svg>
